<svg id="Layer_1" data-name="Layer 1" xmlns="http://www.w3.org/2000/svg" viewBox="0 0 512 512"><defs><style>.cls-1{fill:#fefbf2;}</style></defs><title>half_moon_style_1</title><path class="cls-1" d="M485.79,301.95c-8.06,111.37-98.06,201.38-209.44,209.44A226.65,226.65,0,0,1,65.43,402.64c-.09-.09-.18-.18-.18-.26-.88-1.49-1.84-3-2.63-4.47-.09-.09-.17-.18-.17-.26a39.53,39.53,0,0,1,35.29-57.44h.79c2.45.35,5,.7,7.44.88h.18a197.86,197.86,0,0,0,37.39-.26c90-9.19,162.51-81.69,171.7-171.7a201.53,201.53,0,0,0,.26-37.74c-.17-2.19-.44-4.47-.7-6.65a6.63,6.63,0,0,1-.09-1.31A39.6,39.6,0,0,1,371.88,88l4.47,2.63.09.09C446.74,133,492.27,212.46,485.79,301.95ZM172.8,166.4l33.28-55.47L256,83.2,206.08,49.92,172.8,0,139.52,49.92,89.6,83.2l49.92,27.73ZM96,307.21l28.16-46.93,42.24-23.47-42.24-28.16L96,166.4,67.84,208.64,25.59,236.81l42.24,23.47Z"/></svg>